 <svg
            viewBox="0 0 882 588"
            fill="none"
            xmlns="http://www.w3.org/2000/svg"
          >
            <g id="undraw_adventure_re_ncqp 1" clip-path="url(#clip0_0_1)">
              <path
                id="Vector"
                d="M150.925 561.321L164.207 564.918L184.406 515.395L164.801 510.085L150.925 561.321Z"
                fill="#FFB6B6"
              />
              <path
                data-dark=""
                id="shoes-3"
                d="M146.703 575.051L187.551 586.115L187.691 585.598C188.833 581.382 188.253 576.884 186.079 573.095C183.905 569.306 180.315 566.535 176.099 565.393L176.098 565.392L170.17 557.711L154.715 559.601L151.149 558.635L146.703 575.051Z"
                fill="#2F2E41"
              />
              <path
                id="Vector_3"
                d="M242.64 572.847L256.401 572.846L262.948 519.764L242.637 519.765L242.64 572.847Z"
                fill="#FFB6B6"
              />
              <path
                data-dark=""
                id="shoes-4"
                d="M242.155 587.203L284.474 587.201V586.666C284.474 582.297 282.738 578.108 279.649 575.019C276.56 571.93 272.371 570.194 268.002 570.194H268.001L260.271 564.33L245.848 570.195L242.154 570.195L242.155 587.203Z"
                fill="#2F2E41"
              />
              <path
                id="Vector_5"
                d="M248.515 266.763L266.984 528.341L237.242 530.976L195.751 337.116L200.348 449.282L183.881 537.502L158.707 525.329L159.125 433.47L126.074 285.028L134.871 266.763H248.515Z"
                fill="#6C63FF"
                fill-opacity="0.905882"
              />
              <path
                data-dark=""
                id="Tshirt-4"
                d="M130.292 299.309L130.107 299.05C120.251 285.251 135.075 252.092 137.311 247.285C134.656 246.423 132.382 244.668 130.875 242.318C129.369 239.968 128.724 237.168 129.05 234.396L130.014 226.203L131.019 218.167L123.821 210.97L123.801 210.79L119.659 174.548L113.637 150.476C111.368 141.376 111.561 131.836 114.197 122.835C116.833 113.835 121.817 105.698 128.637 99.2595L142.558 97.0491L159.475 80.7485H186.757L196.112 89.6859C213.574 92.7485 216.574 91.7485 231.574 109.749L224.758 165.711L223.058 173.41L223.063 183.852L227.386 188.656C228.943 190.386 230.075 192.457 230.69 194.702C231.306 196.947 231.389 199.305 230.932 201.587L230.364 204.43C234.822 206.34 239.076 240.295 240.093 245.038L241.611 252.123C242.91 253.837 251.484 265.269 251.484 268.394C251.484 268.863 251.137 269.317 250.394 269.82C244.551 273.776 221.256 301.842 206.963 296.123C191.738 290.035 131.216 299.168 130.606 299.261L130.292 299.309Z"
                fill="#234E70"
              />
              <path
                id="Vector_7"
                d="M126.626 234.234C126.626 234.234 133.632 194.639 126.574 179.749L98.5743 181.749L102.835 238.235L127.313 300.953C126.939 302.885 127.083 304.882 127.731 306.74C128.379 308.599 129.506 310.253 131 311.534C132.493 312.816 134.299 313.68 136.235 314.038C138.17 314.396 140.166 314.236 142.019 313.573C143.872 312.911 145.517 311.769 146.787 310.266C148.056 308.762 148.905 306.949 149.248 305.011C149.59 303.073 149.414 301.079 148.736 299.231C148.059 297.383 146.905 295.747 145.391 294.49L126.626 234.234Z"
                fill="#FFB6B6"
              />
              <path
                data-dark=""
                id="Tshirt-5"
                d="M98.5743 158.749L100.307 139.877C100.959 132.775 103.009 125.872 106.339 119.564C109.669 113.257 114.213 107.67 119.71 103.126C123.125 100.323 127.257 98.5308 131.637 97.9526C136.017 97.3744 140.472 98.0328 144.497 99.8534C149.938 102.358 154.224 106.835 156.49 112.38C158.756 117.924 158.831 124.122 156.702 129.72C150.231 146.692 152.567 164.641 139.949 166.829L141.32 173.352L128.912 213.842L93.5742 209.749L98.5743 158.749Z"
                fill="#234E70"
              />
              <path
                id="Vector_9"
                d="M237.354 287.934C236.116 289.464 235.304 291.294 235.002 293.239C234.7 295.184 234.918 297.174 235.633 299.007C236.349 300.841 237.537 302.452 239.076 303.678C240.616 304.904 242.453 305.7 244.4 305.987C246.347 306.273 248.335 306.04 250.163 305.309C251.99 304.579 253.592 303.378 254.806 301.829C256.019 300.279 256.801 298.436 257.072 296.487C257.343 294.537 257.093 292.551 256.348 290.729L268.061 224.431L261.171 168.205L233.322 171.73C229.319 187.715 243.947 225.17 243.947 225.17L237.354 287.934Z"
                fill="#FFB6B6"
              />
              <path
                data-dark=""
                id="Tshirt-6"
                d="M271.561 194.682L237.71 205.621L224.677 185.289L224.743 178.625C211.94 178.951 203.647 143.95 193.975 128.575C190.79 123.503 189.65 117.41 190.785 111.529C191.921 105.649 195.247 100.418 200.091 96.8961C203.682 94.3219 207.921 92.8033 212.33 92.512C216.738 92.2207 221.14 93.1682 225.039 95.2476C231.32 98.6271 236.87 103.215 241.372 108.748C245.873 114.28 249.236 120.648 251.267 127.485L256.664 145.651L271.561 194.682Z"
                fill="#234E70"
              />
              <path
                id="Vector_11"
                d="M171.276 72.874C188.009 72.874 201.574 59.3088 201.574 42.5753C201.574 25.8418 188.009 12.2767 171.276 12.2767C154.542 12.2767 140.977 25.8418 140.977 42.5753C140.977 59.3088 154.542 72.874 171.276 72.874Z"
                fill="#FFB6B6"
              />
              <path
                id="Vector_12"
                d="M149.287 63.9313C149.023 63.6994 148.773 63.4517 148.515 63.2133C148.505 63.2378 148.504 63.2628 148.494 63.2872L149.287 63.9313Z"
                fill="#2F2E41"
              />
              <path
                id="Vector_13"
                d="M196.105 10.5799C194.6 8.15654 192.515 6.14615 190.038 4.73018C188.345 3.90914 186.566 3.27888 184.734 2.851L179.939 1.54271C177.482 0.782483 174.955 0.273545 172.395 0.0237115C168.841 -0.151631 165.307 0.653157 162.179 2.35016C159.051 4.04716 156.449 6.57111 154.658 9.64635C153.209 12.2159 152.047 15.4179 149.251 16.358C146.997 17.116 144.537 16.0468 142.168 16.2542C140.779 16.4554 139.462 16.996 138.332 17.828C137.203 18.6601 136.296 19.7579 135.692 21.0242C134.511 23.5725 133.93 26.3575 133.993 29.1655C133.9 35.5404 135.144 41.864 137.645 47.7285C140.147 53.593 143.849 58.868 148.515 63.2135C149.297 61.1522 148.009 58.9267 146.99 56.9548C145.96 54.9596 145.324 52.178 147.049 50.741C148.969 49.142 152.045 50.6926 154.316 49.6499C155.042 49.2326 155.654 48.6419 156.097 47.9305C156.539 47.2192 156.799 46.4093 156.852 45.5733C157.072 43.9165 156.842 42.2325 156.946 40.5645C157.049 38.9206 157.474 37.313 158.198 35.8335C158.921 34.3539 159.93 33.0314 161.164 31.9415C162.399 30.8516 163.837 30.0155 165.395 29.4811C166.953 28.9467 168.601 28.7243 170.244 28.8268C170.282 28.8292 170.32 28.8317 170.358 28.8344C175.526 29.2036 180.542 32.7353 185.516 31.2824C187.851 30.6004 189.842 28.8639 192.257 28.5718C194.931 28.2483 197.447 29.7575 199.717 31.2067C200.542 27.703 200.648 24.0684 200.027 20.5228C199.406 16.9773 198.072 13.5947 196.105 10.5799Z"
                fill="#80634C"
              />
              <path
                id="Vector_14"
                d="M354.432 570.18L346.722 557.79L345.182 564.87C344.912 566.11 344.642 567.37 344.392 568.62C342.202 566.75 339.872 565.02 337.592 563.36C330.592 558.28 323.596 553.193 316.602 548.1L318.792 560.8C320.142 568.62 321.552 576.6 324.892 583.75C325.262 584.56 325.662 585.36 326.092 586.14H358.632C358.894 585.416 359.075 584.664 359.172 583.9C359.18 583.85 359.184 583.8 359.182 583.75C359.692 578.9 357.012 574.33 354.432 570.18Z"
                fill="#80634C"
              />
              <path
                id="Vector_15"
                d="M392.293 587.358L76.9355 587.665C76.6207 587.663 76.3194 587.537 76.0974 587.314C75.8754 587.091 75.7508 586.789 75.7508 586.474C75.7508 586.159 75.8754 585.858 76.0974 585.634C76.3194 585.411 76.6207 585.285 76.9355 585.284L392.293 584.976C392.608 584.978 392.909 585.104 393.131 585.327C393.353 585.55 393.478 585.852 393.478 586.167C393.478 586.482 393.353 586.784 393.131 587.007C392.909 587.23 392.608 587.356 392.293 587.358Z"
                fill="#80634C"
              />
              <path
                id="Vector_16"
                d="M616.237 247.47L616.244 247.484L616.374 247.233L616.237 247.47Z"
                fill="#6C63FF"
              />
              <g id="planet">
                <path
                  id="Vector_17"
                  d="M718.628 202.484C718.559 237.489 705.398 271.203 681.732 296.997C658.066 322.791 625.608 338.799 590.738 341.874C555.867 344.949 521.108 334.869 493.293 313.616C465.478 292.362 446.619 261.472 440.425 227.019C434.23 192.566 441.148 157.042 459.818 127.43C478.487 97.8188 507.559 76.2624 541.316 66.9987C575.074 57.7351 611.076 61.4344 642.244 77.3693C673.413 93.3043 697.493 120.322 709.751 153.111C710.057 153.935 710.355 154.758 710.645 155.589V155.597C711.939 159.252 713.078 162.974 714.064 166.764C717.104 178.427 718.638 190.431 718.628 202.484Z"
                  fill="#3F3D56"
                />
                <path
                  id="Vector_18"
                  d="M562.032 107.249C555.688 103.819 548.645 101.883 541.44 101.588C534.235 101.293 527.057 102.648 520.455 105.548C514.641 108.078 508.52 112.617 506.581 120.812C514.424 116.184 524.577 123.497 526.595 135.229L526.124 135.359C525.058 143.486 527.438 152.333 532.045 157.372C532.388 155.098 533.232 152.929 534.518 151.023C535.803 149.117 537.497 147.52 539.476 146.35C542.861 144.125 546.606 142.509 549.19 138.684C552.253 134.15 553.031 127.523 554.247 121.477C555.464 115.432 557.772 108.934 562.032 107.249Z"
                  fill="#6C63FF"
                />
                <path
                  id="Vector_19"
                  d="M518.128 176.402C515.956 179.664 513.054 181.711 510.451 184.259C507.445 186.993 505.474 190.679 504.867 194.697C504.538 197.535 505.048 200.421 504.977 203.291C504.907 206.161 503.95 209.392 501.997 210.106C498.915 211.219 496.563 205.495 493.395 205.095C490.878 204.781 488.611 208.741 489.341 212.176C490.07 215.611 493.497 217.132 495.465 214.889C497.245 217.877 495.99 223.296 493.316 224.213C493.034 226.095 492.752 227.97 492.477 229.852C485.718 225.123 478.887 220.316 473.139 213.392C466.747 205.756 462.781 196.384 461.753 186.478C461.008 178.519 462.114 169.415 458.46 163.29C455.534 158.389 450.516 157.307 445.999 157.613C445.175 157.667 444.344 157.762 443.521 157.864C446.185 149.863 449.568 142.12 453.629 134.73C454.548 134.336 455.402 133.804 456.162 133.154C460.365 129.586 462.231 122.364 465.642 117.368C465.862 117.047 466.09 116.733 466.325 116.427C469.814 111.871 474.488 109.526 479.005 107.346C489.003 102.492 499.292 97.5755 509.847 98.2499L506.843 98.54C503.338 108.358 499.83 118.176 496.32 127.994C495.786 129.5 495.248 131.008 494.704 132.519C492.712 138.102 490.658 144.046 490.964 150.296C491.144 153.997 492.43 157.95 494.877 159.22C497.159 160.396 499.652 158.954 501.856 157.526C502.789 156.93 503.714 156.334 504.648 155.73C507.996 153.574 511.705 151.363 515.242 152.805C518.481 154.123 520.872 158.522 521.327 163.266C521.744 167.878 520.619 172.498 518.128 176.402Z"
                  fill="#6C63FF"
                />
                <path
                  id="Vector_20"
                  d="M538.043 243.431C528.263 237.41 518.484 231.389 508.704 225.367L508.87 224.94C502.79 227.256 500.265 238.064 501.27 246.903C502.275 255.742 505.682 263.643 507.404 272.256C509.725 284.042 508.849 296.234 504.867 307.567C517.726 293.138 529.107 277.456 538.838 260.756C540.197 258.651 541.233 256.355 541.91 253.942C542.628 251.372 542.372 248.627 541.192 246.233C540.391 245.052 539.309 244.089 538.043 243.431Z"
                  fill="#6C63FF"
                />
                <path
                  id="Vector_21"
                  d="M499.446 133.885C498.298 136.351 498.121 139.158 498.951 141.749C499.916 143.836 501.666 145.457 503.821 146.259L509.225 148.938C511.022 149.829 512.96 150.729 514.793 149.996C517.003 149.112 518.535 145.646 518.139 142.429C517.717 139.006 515.559 136.651 513.564 134.646C510.771 131.84 507.978 129.034 505.185 126.227L503.611 128.155C501.909 129.816 500.501 131.753 499.446 133.885Z"
                  fill="#6C63FF"
                />
                <path
                  id="Vector_22"
                  d="M689.66 170.481C692.091 171.054 694.522 171.626 696.953 172.198C696.53 180.409 692.46 188.008 687.002 190.76C684.728 191.905 682.195 192.328 680.313 194.469C678.611 196.414 677.748 199.441 676.956 202.335C675.568 207.385 674.18 212.435 672.792 217.485C671.302 222.927 669.389 228.973 665.515 230.934C662.19 232.62 658.387 230.557 655.831 227.099C653.274 223.641 651.714 218.991 650.2 214.458C650.294 219.398 647.997 224.245 644.742 225.962C641.48 227.679 637.512 226.127 635.332 222.292C633.764 219.539 633.113 215.909 631.576 213.117C630.039 210.325 626.816 208.726 625.138 211.345C624.032 213.086 624.173 215.752 623.624 217.963C623.348 219.431 622.621 220.777 621.544 221.813C620.468 222.849 619.095 223.523 617.617 223.743C616.258 223.712 614.92 223.404 613.684 222.839C612.448 222.274 611.339 221.464 610.426 220.457C605.624 215.545 602.498 209.24 601.495 202.444C600.814 199.186 600.9 195.814 601.745 192.595C602.71 189.545 605.039 187.192 607.352 187.772C608.874 184.557 605.87 180.291 603.165 180.668C600.451 181.044 598.326 183.953 596.099 186.188C593.88 188.423 590.775 190.046 588.54 187.827C588.59 188.639 588.315 189.437 587.777 190.046C587.238 190.656 586.479 191.026 585.668 191.076C585.587 191.081 585.507 191.083 585.427 191.081C583.94 190.655 582.56 189.923 581.372 188.933C576.252 185.741 569.751 187.859 566.112 193.897C568.386 184.22 571.719 173.116 578.706 170.842C581.561 169.908 584.674 170.677 587.371 169.062C592.147 166.199 593.112 155.385 588.987 150.924C589.512 155.142 589.41 160.067 587.183 162.953C584.956 165.839 580.282 163.957 580.565 159.691C580.501 160.291 580.25 160.855 579.846 161.303C579.442 161.752 578.907 162.061 578.316 162.186C577.726 162.311 577.112 162.247 576.56 162.001C576.009 161.756 575.55 161.342 575.248 160.82C573.766 158.562 573.891 154.868 574.942 152.17C576.025 149.727 577.579 147.521 579.514 145.677C583.239 141.686 587.019 137.647 591.332 135.138C595.653 132.629 600.64 131.782 604.969 134.275C607.251 135.593 609.258 137.789 611.587 138.949C612.134 139.289 612.743 139.517 613.379 139.621C614.014 139.726 614.664 139.704 615.291 139.557C615.919 139.41 616.511 139.141 617.034 138.766C617.557 138.39 618.001 137.915 618.341 137.367C618.367 137.325 618.392 137.283 618.417 137.24C620.15 134.197 619.335 129.68 619.978 125.877C621.131 119.156 627.851 116.012 631.576 120.45C628.792 119.737 625.914 123.03 625.569 127.022C625.216 131.013 627.232 135.044 629.929 136.252C634.462 138.259 638.9 133.209 642.327 128.535C645.903 123.642 649.484 118.751 653.07 113.863C653.643 113.031 654.286 112.249 654.992 111.526C656.115 110.431 657.612 109.805 659.18 109.773C660.748 109.741 662.27 110.306 663.437 111.354C667.06 114.31 668.762 120.372 671.734 124.544C676.047 130.605 682.501 132.08 688.507 133.256C692.985 134.126 697.465 135.002 701.948 135.883C704.937 141.442 707.544 147.199 709.751 153.112C701.53 156.86 694.557 162.888 689.66 170.481Z"
                  fill="#6C63FF"
                />
                <path
                  id="Vector_23"
                  d="M714.064 166.764C713.145 169.472 712.643 172.304 712.574 175.163C708.731 170.473 708.12 161.683 710.645 155.597C711.939 159.252 713.079 162.974 714.064 166.764Z"
                  fill="#6C63FF"
                />
                <path
                  id="Vector_24"
                  d="M704.136 264.834C700.777 271.656 696.869 278.194 692.452 284.384C689.629 283.176 686.594 285.332 683.951 287.356C681.191 289.473 677.874 291.535 675.043 289.606C672.149 287.63 671.216 282.102 672.134 277.718C673.188 273.674 675.032 269.879 677.56 266.551C679.913 263.038 682.43 259.392 685.7 258.027C688.978 256.663 693.189 258.592 694.146 263.25L696.467 263.171C695.165 261.383 695.847 257.682 697.596 257.031C699.611 256.271 701.36 259.039 702.552 261.485C703.085 262.591 703.626 263.705 704.136 264.834Z"
                  fill="#6C63FF"
                />
                <path
                  id="Vector_25"
                  d="M615.237 231.711C610.247 232.024 606.295 225.883 603.669 219.84C601.043 213.798 598.647 206.888 594.145 203.812C591.573 202.055 588.64 201.814 585.85 200.962C584.268 200.563 582.803 199.791 581.578 198.713C580.353 197.634 579.403 196.279 578.806 194.76L575.641 193.482C571.214 195.695 567.16 198.585 563.625 202.05C559.586 206.341 557.07 211.841 556.465 217.703C555.86 224.038 558.093 231.102 562.264 233.481C565.56 235.362 569.398 234.176 572.737 235.898C576.908 238.048 579.385 244.296 580.322 250.465C581.26 256.634 581.022 263.044 581.693 269.283C582.363 275.522 584.212 282.014 588.037 285.211C592.825 289.212 599.849 285.887 601.997 278.604C603.05 275.032 603.014 271.001 603.802 267.293C605.19 260.762 608.934 255.917 611.904 250.56C614.874 245.203 617.212 237.928 615.237 231.711Z"
                  fill="#6C63FF"
                />
                <path
                  id="Vector_26"
                  d="M565.936 167.54C566.401 167.968 566.835 168.429 567.235 168.919C567.649 169.633 567.86 170.445 567.846 171.27C567.832 172.095 567.593 172.9 567.155 173.599C567.756 173.564 568.344 173.406 568.88 173.133C569.417 172.86 569.891 172.479 570.273 172.014C571.183 170.977 571.985 169.849 572.663 168.647C572.982 168.235 573.21 167.761 573.332 167.254C573.453 166.748 573.466 166.221 573.368 165.71C573.132 165.037 572.575 164.75 572.184 164.244C571.643 163.255 571.273 162.181 571.091 161.068C570.874 160.025 570.371 159.063 569.638 158.29C568.904 157.518 567.97 156.965 566.94 156.694L567.19 156.742C566.764 156.994 566.428 157.373 566.229 157.826C566.03 158.279 565.977 158.783 566.079 159.268C566.23 160.246 566.859 161.059 566.797 162.057C566.707 163.492 565.272 164.165 565.184 165.601C565.17 166.321 565.44 167.017 565.936 167.54Z"
                  fill="#6C63FF"
                />
                <path
                  id="Vector_27"
                  d="M557.388 143.152L557.41 143.147C557.563 143.007 557.706 142.856 557.835 142.694L557.388 143.152Z"
                  fill="#6C63FF"
                />
                <path
                  id="Vector_28"
                  d="M558.884 149.888C559.483 149.362 559.926 148.682 560.165 147.921C560.404 147.161 560.429 146.349 560.238 145.575C559.876 143.943 558.593 142.846 557.41 143.147C557.067 143.495 556.64 143.75 556.172 143.888C555.703 144.026 555.206 144.043 554.729 143.937C553.998 143.748 553.195 143.263 552.56 143.814C552.197 144.226 551.943 144.722 551.821 145.257C551.586 145.978 551.352 146.699 551.117 147.42C551.005 147.678 550.976 147.964 551.033 148.239C551.078 148.349 551.151 148.446 551.244 148.52C551.338 148.594 551.448 148.643 551.566 148.662C552.975 149.078 554.384 149.493 555.793 149.908C556.278 150.132 556.806 150.246 557.341 150.242C557.875 150.239 558.402 150.118 558.884 149.888Z"
                  fill="#6C63FF"
                />
                <path
                  id="Vector_29"
                  d="M665.252 242.891C664.6 241.825 663.949 240.759 663.298 239.692C662.658 238.457 661.783 237.359 660.723 236.459C660.493 236.267 660.228 236.122 659.942 236.032C659.656 235.942 659.356 235.909 659.057 235.936C658.759 235.962 658.469 236.047 658.203 236.186C657.937 236.324 657.701 236.514 657.509 236.743L657.475 236.785L657.554 237.394C659.298 239.264 660.487 241.582 660.986 244.09C661.135 245.18 661.083 246.307 661.213 247.402C661.227 247.909 661.341 248.409 661.548 248.873C661.755 249.336 662.051 249.754 662.42 250.103C663.445 250.788 664.65 249.778 665.38 248.546C666.032 247.533 666.325 246.331 666.211 245.132C666.048 244.327 665.721 243.564 665.252 242.891Z"
                  fill="#6C63FF"
                />
                <path
                  id="Vector_30"
                  d="M675.469 244.279C675.593 243.281 675.512 242.268 675.23 241.302C675.184 239.995 675.53 238.705 676.225 237.597C676.915 236.552 677.438 235.406 677.775 234.199C677.916 233.65 677.891 233.07 677.7 232.536C677.485 232.051 676.962 231.83 676.663 232.214L677.304 232.627C676.438 232.472 675.549 232.515 674.703 232.753C674.22 232.938 673.788 233.236 673.445 233.623C673.102 234.01 672.857 234.474 672.731 234.975C672.625 235.757 672.452 236.529 672.214 237.281C671.832 238.067 671.092 238.328 670.627 239.018C670.309 239.63 670.149 240.31 670.161 240.999C670.172 241.688 670.355 242.363 670.692 242.964C671.276 243.946 672.205 244.677 673.297 245.013C674.08 245.293 675.111 245.308 675.469 244.279Z"
                  fill="#6C63FF"
                />
                <path
                  id="Vector_31"
                  d="M693.664 249.769C693.947 250.505 694.326 251.201 694.791 251.838C695.662 252.715 696.846 252.176 697.903 251.963C698.862 251.811 699.844 251.922 700.745 252.284C701.646 252.645 702.432 253.244 703.021 254.016C702.611 251.972 701.716 250.056 700.413 248.43C699.109 246.803 697.434 245.513 695.528 244.668C693.052 243.811 690.443 243.403 687.823 243.463L687.375 243.578C688.516 246.897 692.096 246.823 693.664 249.769Z"
                  fill="#6C63FF"
                />
                <path
                  id="Vector_32"
                  d="M613.841 261.9C613.239 262.993 612.722 264.13 612.293 265.302C611.725 267.2 611.349 269.15 611.17 271.123C611.03 272.244 610.987 273.677 611.69 274.224C611.892 274.358 612.135 274.414 612.375 274.381C612.615 274.348 612.835 274.23 612.994 274.047C613.384 273.634 613.704 273.159 613.939 272.641C615.321 270.262 616.393 267.717 617.131 265.067C617.901 262.255 617.717 259.268 616.608 256.572C615.686 258.348 614.764 260.124 613.841 261.9Z"
                  fill="#6C63FF"
                />
                <path
                  id="Vector_33"
                  d="M587.213 119.559C587.652 119.987 588.206 120.278 588.808 120.396C589.41 120.513 590.032 120.452 590.6 120.22C591.775 119.706 592.853 118.994 593.787 118.115C594.56 117.543 595.215 116.827 595.718 116.008C595.995 115.518 596.173 114.978 596.241 114.419C596.308 113.861 596.265 113.294 596.113 112.752C595.897 112.233 595.553 111.777 595.112 111.428C594.671 111.079 594.148 110.849 593.593 110.758C592.029 110.294 590.465 109.83 588.901 109.367L590.032 108.347C588.868 107.722 587.581 108.882 586.853 110.317C586.387 111.254 586.062 112.256 585.888 113.288C585.641 114.367 585.631 115.486 585.86 116.569C586.089 117.652 586.551 118.672 587.213 119.559Z"
                  fill="#6C63FF"
                />
                <path
                  id="Vector_34"
                  d="M614.824 110.29C615.265 110.776 615.874 111.076 616.528 111.129C617.182 111.182 617.832 110.984 618.345 110.576C618.787 110.244 619.154 109.823 619.423 109.339C619.691 108.856 619.854 108.322 619.903 107.771C620.013 106.541 619.405 105.173 618.536 105.067L618.735 103.915C617.062 103.613 615.002 103.553 614.106 105.585C613.803 106.363 613.71 107.208 613.836 108.033C613.962 108.859 614.303 109.637 614.824 110.29Z"
                  fill="#6C63FF"
                />
                <g id="Group" opacity="0.35">
                  <path
                    id="Vector_35"
                    d="M879.578 209.438C888.814 205.411 870.084 203.067 848.835 202.296C827.586 201.526 801.88 201.568 788.301 199.376C775.168 197.256 776.135 193.486 775.031 190.071C773.926 186.655 768.877 183.153 748.384 182.394C722.847 181.448 680.735 185.089 661.457 182.903C643.467 180.863 654.161 174.463 627.929 174.218C612.949 174.078 593.652 176.188 576.984 176.697C565.17 177.209 553.333 176.592 541.636 174.854C533.512 173.523 527.854 171.836 518.711 170.66C494.706 167.573 447.742 168.611 405.825 172.567C363.907 176.523 327.977 183.006 307.713 189.427C287.449 195.848 281.851 202.17 286.571 207.531C289.585 210.954 297.298 214.155 316.008 215.531C351.004 218.104 413.311 213.675 449.473 216.016C469.627 217.321 478.569 220.555 496.252 222.325C515.251 224.227 543.062 224.328 570.387 224.283C627.281 224.189 685.63 223.604 745.128 222.532C769.98 222.084 796.019 221.502 822.463 219.369C848.907 217.235 875.879 213.118 881.458 209.258"
                    fill="white"
                  />
                </g>
              </g>
              <path
                id="Vector_36"
                d="M718.651 378.203C705.739 378.203 691.587 377.715 676.194 376.74C596.581 371.684 493.457 354.107 385.818 327.247C278.181 300.388 178.888 267.453 106.233 234.513C70.8404 218.466 43.6769 203.277 25.4977 189.365C6.25059 174.638 -2.16835 161.801 0.473718 151.213C5.62167 130.584 51.2047 126.071 88.5377 125.917L88.5504 128.917C37.2823 129.128 7.03674 137.304 3.38488 151.939C-1.26697 170.579 36.6715 199.68 107.472 231.781C179.967 264.649 279.077 297.52 386.545 324.337C494.012 351.154 596.946 368.7 676.385 373.745C753.964 378.673 801.128 370.808 805.779 352.167C809.641 336.691 784.181 313.892 734.09 287.969L735.469 285.305C771.866 304.141 814.114 331.157 808.691 352.894C806.048 363.483 792.585 370.859 768.675 374.817C755.046 377.073 738.305 378.203 718.651 378.203Z"
                fill="#6C63FF"
              />
              <path
                id="Vector_37"
                d="M225.996 382.11C190.397 382.111 157.302 380.889 127.674 378.424C88.9476 375.201 58.2596 370.021 36.4637 363.028C13.387 355.622 1.14436 346.361 0.0755064 335.499C-2.00749 314.341 39.4095 294.775 74.5208 282.086L75.5404 284.908C27.3236 302.332 1.58336 320.195 3.06087 335.206C4.9427 354.325 50.453 368.988 127.923 375.434C207.248 382.034 311.64 379.696 421.87 368.844C532.1 357.995 634.946 339.938 711.461 317.998C786.187 296.573 827.966 273.319 826.084 254.199C824.522 238.325 792.882 225.406 736.992 217.821L737.396 214.848C778.006 220.36 826.875 231.61 829.07 253.906C830.139 264.767 819.936 276.238 798.747 287.999C778.732 299.109 749.643 310.172 712.288 320.882C635.603 342.87 532.569 360.963 422.164 371.83C352.905 378.647 285.919 382.11 225.996 382.11Z"
                fill="#6C63FF"
              />
              <g id="ball-p_2">
                <path
                  id="Vector_38"
                  d="M330.483 456.966C340.139 456.966 347.966 449.139 347.966 439.483C347.966 429.827 340.139 422 330.483 422C320.827 422 313 429.827 313 439.483C313 449.139 320.827 456.966 330.483 456.966Z"
                  fill="#6C63FF"
                />
                <path
                  id="Vector_39"
                  d="M800.483 126.966C810.139 126.966 817.966 119.139 817.966 109.483C817.966 99.8274 810.139 92 800.483 92C790.827 92 783 99.8274 783 109.483C783 119.139 790.827 126.966 800.483 126.966Z"
                  fill="#6C63FF"
                />
              </g>
              <g id="ball-p_3">
                <path
                  id="Vector_40"
                  d="M414.573 74.2747C420.484 74.2747 425.275 69.4831 425.275 63.5723C425.275 57.6616 420.484 52.87 414.573 52.87C408.662 52.87 403.871 57.6616 403.871 63.5723C403.871 69.4831 408.662 74.2747 414.573 74.2747Z"
                  fill="#FF6584"
                />
              </g>
              <g id="ball-p_1">
                <path
                  id="Vector_41"
                  d="M63.4831 341.966C73.1387 341.966 80.9661 334.139 80.9661 324.483C80.9661 314.827 73.1387 307 63.4831 307C53.8274 307 46 314.827 46 324.483C46 334.139 53.8274 341.966 63.4831 341.966Z"
                  fill="#FF6584"
                />
                <path
                  id="Vector_42"
                  d="M349.82 155.065C359.475 155.065 367.303 147.238 367.303 137.582C367.303 127.926 359.475 120.099 349.82 120.099C340.164 120.099 332.337 127.926 332.337 137.582C332.337 147.238 340.164 155.065 349.82 155.065Z"
                  fill="#80634C"
                />
              </g>
              <g
                id="undraw_playful_cat_re_ac9g 1"
                clip-path="url(#clip1_0_1)"
              >
                <path
                  id="Vector_43"
                  d="M435.814 531.344C432.796 531.347 429.8 530.721 426.953 529.492L426.741 529.4L426.915 528.395C421.762 515.971 423.541 498.895 431.461 484.854C438.666 472.08 449.639 462.781 459.318 454.578C460.51 453.568 461.919 453.019 463.366 453C464.812 452.982 466.231 453.495 467.439 454.474C468.647 455.453 469.591 456.854 470.149 458.497C470.707 460.14 470.854 461.95 470.571 463.697L467.149 484.837C464.658 500.232 461.696 514.801 452.928 523.858C448.095 528.707 442.049 531.352 435.814 531.344Z"
                  fill="#6C63FF"
                />
                <path
                  id="abd51855-a673-4ef9-adc8-1347fdb580b5-45"
                  d="M429.79 585.376C427.999 569.31 426.155 553.036 427.415 536.798C428.532 522.377 432.106 508.294 439.384 496.742C443.247 490.623 447.948 485.38 453.274 481.249C454.663 480.17 455.941 482.879 454.559 483.953C445.342 491.123 438.213 501.709 434.199 514.187C429.767 528.062 429.055 543.188 429.818 557.928C430.28 566.842 431.261 575.697 432.245 584.542C432.323 584.942 432.275 585.363 432.11 585.721C431.945 586.078 431.675 586.345 431.356 586.468C431.031 586.576 430.684 586.521 430.391 586.317C430.098 586.112 429.883 585.773 429.791 585.374L429.79 585.376Z"
                  fill="#3F3D56"
                />
                <path
                  id="Vector_44"
                  d="M462.739 567.633C459.447 567.623 456.208 566.612 453.309 564.69C450.411 562.768 447.943 559.995 446.124 556.617L446 556.385L446.497 555.866C447.992 545.748 455.235 536.713 464.977 532.826C473.83 529.295 483.637 529.872 492.286 530.383C493.363 530.447 494.401 530.904 495.265 531.697C496.13 532.49 496.783 533.583 497.14 534.835C497.498 536.087 497.543 537.442 497.271 538.727C496.999 540.011 496.422 541.167 495.614 542.045L485.949 552.548C478.903 560.208 471.879 567.125 463.438 567.617C463.205 567.628 462.972 567.633 462.739 567.633Z"
                  fill="#6C63FF"
                />
                <path
                  id="b6a87e1b-685a-4f79-adc0-a59c983b9bff-46"
                  d="M428.167 591.479C436.793 572.694 446.797 551.817 464.675 545.144C469.645 543.295 474.857 542.633 480.029 543.193C481.659 543.366 481.252 546.459 479.625 546.287C470.955 545.401 462.301 548.218 455.121 554.266C448.211 560.054 442.831 568.102 438.278 576.636C435.489 581.864 432.991 587.313 430.493 592.755C429.694 594.494 427.36 593.238 428.167 591.479Z"
                  fill="#3F3D56"
                />
                <path
                  id="Vector_45"
                  d="M723.081 568.516C718.663 568.516 715.296 565.579 712.856 559.64C710.518 553.946 712.943 549.03 716.186 546.871C719.436 544.708 724.116 544.903 726.71 550.438C729.239 555.832 729.529 561.423 727.573 567.057L727.669 567.61L727.44 567.691C726.025 568.215 724.558 568.492 723.081 568.516Z"
                  fill="#6C63FF"
                />
                <path
                  id="fe56ea42-b5c6-4c01-a160-1e56b0952e49-49"
                  d="M729.443 600.257C731.702 584.53 731.844 564.611 719.306 555.316C718.708 554.851 718.156 556.02 718.753 556.483C730.857 565.495 730.498 584.738 728.383 599.897C728.35 600.068 728.372 600.248 728.444 600.399C728.517 600.549 728.634 600.66 728.772 600.706C728.909 600.753 729.056 600.732 729.181 600.648C729.306 600.564 729.399 600.424 729.442 600.256L729.443 600.257Z"
                  fill="#3F3D56"
                />
                <path
                  id="Vector_46"
                  d="M676.454 571.503H543.127C542.992 571.503 542.862 571.437 542.766 571.319C542.67 571.201 542.617 571.041 542.617 570.875C542.617 570.708 542.67 570.548 542.766 570.43C542.862 570.312 542.992 570.246 543.127 570.246H676.454C676.589 570.246 676.719 570.312 676.815 570.43C676.911 570.548 676.964 570.708 676.964 570.875C676.964 571.041 676.911 571.201 676.815 571.319C676.719 571.437 676.589 571.503 676.454 571.503Z"
                  fill="#80634C"
                />
                <path
                  id="Vector_47"
                  d="M611.674 465.932L610.796 452.482C610.713 452.195 610.572 451.938 610.388 451.735C610.203 451.532 609.98 451.389 609.739 451.319C609.498 451.249 609.246 451.255 609.008 451.336C608.769 451.417 608.55 451.571 608.372 451.782C601.327 453.91 598.485 458.437 597.67 464.123C594.289 463.241 590.814 463.048 587.382 463.553C589.859 459.214 589.688 454.792 587.112 450.295C587.04 450 586.908 449.733 586.729 449.519C586.55 449.304 586.33 449.148 586.089 449.066C585.849 448.984 585.595 448.979 585.352 449.05C585.109 449.121 584.884 449.267 584.7 449.474C579.934 452.438 576.601 456.132 576.065 461.251C570.08 465.202 565.281 471.408 562.371 478.96C559.462 486.512 558.594 495.013 559.896 503.216C561.199 511.419 564.602 518.893 569.607 524.542C574.612 530.191 580.956 533.718 587.708 534.605C594.46 535.493 601.266 533.694 607.128 529.474C612.989 525.253 617.598 518.832 620.278 511.152C622.958 503.472 623.568 494.938 622.02 486.8C620.471 478.662 616.845 471.348 611.674 465.932Z"
                  fill="#3F3D56"
                />
                <path
                  id="Vector_48"
                  d="M615.641 520.512C641.394 516.446 655.881 568.149 614.335 571.03C611.786 574.472 591.806 577.351 574.873 572.598C559.675 573.347 542.397 548.879 563.703 515.505L615.641 520.512Z"
                  fill="#3F3D56"
                />
                <path
                  id="Vector_49"
                  d="M589.931 547.191V573.347H599.867L607.75 546.714"
                  fill="#3F3D56"
                />
                <path
                  id="Vector_50"
                  d="M625.422 564.526C625.368 564.43 625.328 564.329 625.281 564.23C624.857 564.249 624.434 564.269 624.011 564.288L625.422 564.526Z"
                  fill="#3F3D56"
                />
                <path
                  id="Vector_51"
                  d="M664.57 549.413C661.398 543.174 653.637 541.44 648.887 545.91C646.743 547.926 645.298 550.842 643.466 553.281C640.385 557.358 636.276 560.035 631.804 560.878C628.691 561.452 625.399 561.14 622.524 562.718C619.736 564.248 617.633 568.615 619.151 571.775C629.851 571.29 640.551 570.804 651.252 570.319C654.33 570.179 657.518 570.006 660.271 568.304C665.614 565.001 667.741 555.653 664.57 549.413Z"
                  fill="#3F3D56"
                />
                <path
                  id="Vector_52"
                  d="M588.638 531.34C584.243 531.389 579.887 530.319 575.844 528.197C567.403 523.687 563.534 516.076 563.373 515.755C563.32 515.647 563.304 515.518 563.328 515.396C563.352 515.273 563.415 515.168 563.502 515.102C563.589 515.036 563.694 515.015 563.793 515.044C563.893 515.073 563.979 515.149 564.033 515.255C567.091 520.601 571.303 524.788 576.192 527.343C583.793 531.389 596.774 533.415 615.446 520.099C615.49 520.068 615.539 520.047 615.589 520.039C615.64 520.03 615.691 520.034 615.74 520.05C615.79 520.066 615.836 520.094 615.876 520.132C615.917 520.17 615.951 520.218 615.976 520.272C616.002 520.326 616.018 520.386 616.025 520.448C616.032 520.511 616.029 520.574 616.015 520.634C616.002 520.695 615.98 520.752 615.949 520.801C615.918 520.851 615.879 520.893 615.835 520.924C604.874 528.741 595.824 531.34 588.638 531.34Z"
                  fill="white"
                />
                <path
                  id="Vector_53"
                  d="M590.318 507.142C589.599 507.141 588.91 506.789 588.402 506.163C587.893 505.537 587.608 504.689 587.607 503.804C587.607 503.678 587.648 503.558 587.721 503.469C587.793 503.38 587.892 503.33 587.994 503.33C588.096 503.33 588.195 503.38 588.267 503.469C588.34 503.558 588.381 503.678 588.381 503.804C588.382 504.436 588.587 505.041 588.95 505.487C589.313 505.934 589.805 506.184 590.318 506.184C590.831 506.184 591.324 505.934 591.687 505.487C592.05 505.041 592.254 504.436 592.255 503.804C592.256 503.678 592.297 503.558 592.369 503.469C592.442 503.38 592.54 503.33 592.642 503.33C592.745 503.33 592.843 503.38 592.916 503.469C592.988 503.558 593.029 503.678 593.03 503.804C593.029 504.689 592.743 505.537 592.235 506.163C591.726 506.789 591.037 507.141 590.318 507.142Z"
                  fill="white"
                />
                <path
                  id="Vector_54"
                  d="M590.512 499.312C592.223 499.312 593.611 498.655 593.611 497.845C593.611 497.034 592.223 496.378 590.512 496.378C588.8 496.378 587.413 497.034 587.413 497.845C587.413 498.655 588.8 499.312 590.512 499.312Z"
                  fill="white"
                />
                <path
                  id="Vector_55"
                  d="M569.675 497.952C570.562 496.645 571.671 495.594 572.924 494.873C574.177 494.152 575.543 493.778 576.926 493.778C578.31 493.778 579.676 494.152 580.929 494.873C582.182 495.594 583.291 496.645 584.178 497.952C585.68 496.187 586.724 493.913 587.176 491.418C587.628 488.923 587.469 486.319 586.719 483.935C585.969 481.551 584.662 479.494 582.962 478.025C581.262 476.556 579.246 475.74 577.17 475.681C575.094 475.621 573.049 476.321 571.296 477.692C569.543 479.062 568.159 481.042 567.32 483.381C566.481 485.719 566.224 488.311 566.582 490.83C566.94 493.348 567.896 495.679 569.33 497.528C569.442 497.673 569.557 497.814 569.675 497.952Z"
                  fill="white"
                />
                <path
                  id="Vector_56"
                  d="M598.029 497.952C598.916 496.645 600.025 495.594 601.278 494.873C602.531 494.152 603.898 493.778 605.281 493.778C606.664 493.778 608.031 494.152 609.284 494.873C610.537 495.594 611.646 496.645 612.532 497.952C614.035 496.187 615.078 493.913 615.531 491.418C615.983 488.923 615.824 486.319 615.074 483.935C614.324 481.551 613.016 479.494 611.316 478.025C609.617 476.556 607.601 475.74 605.525 475.681C603.448 475.621 601.404 476.321 599.651 477.692C597.897 479.062 596.514 481.042 595.675 483.381C594.835 485.719 594.578 488.311 594.936 490.83C595.294 493.348 596.251 495.679 597.685 497.528C597.797 497.673 597.912 497.814 598.029 497.952Z"
                  fill="white"
                />
                <path
                  id="Vector_57"
                  d="M572.322 494.306C574.317 494.306 575.935 492.316 575.935 489.86C575.935 487.404 574.317 485.414 572.322 485.414C570.327 485.414 568.71 487.404 568.71 489.86C568.71 492.316 570.327 494.306 572.322 494.306Z"
                  fill="#3F3D56"
                />
                <path
                  id="Vector_58"
                  d="M600.676 494.306C602.671 494.306 604.288 492.316 604.288 489.86C604.288 487.404 602.671 485.414 600.676 485.414C598.681 485.414 597.063 487.404 597.063 489.86C597.063 492.316 598.681 494.306 600.676 494.306Z"
                  fill="#3F3D56"
                />
                <path
                  id="Vector_59"
                  d="M605.619 507.361C607.367 507.361 608.785 505.617 608.785 503.465C608.785 501.313 607.367 499.569 605.619 499.569C603.871 499.569 602.453 501.313 602.453 503.465C602.453 505.617 603.871 507.361 605.619 507.361Z"
                  fill="#FF6584"
                />
                <path
                  id="Vector_60"
                  d="M577.013 507.361C578.761 507.361 580.178 505.617 580.178 503.465C580.178 501.313 578.761 499.569 577.013 499.569C575.264 499.569 573.847 501.313 573.847 503.465C573.847 505.617 575.264 507.361 577.013 507.361Z"
                  fill="#FF6584"
                />
                <path
                  id="Vector_61"
                  d="M543.184 570.675C544.455 569.7 543.558 565.106 541.182 560.413C538.805 555.721 535.848 552.707 534.577 553.682C533.306 554.658 534.203 559.252 536.579 563.944C538.956 568.637 541.913 571.65 543.184 570.675Z"
                  fill="#3F3D56"
                />
                <path
                  id="Vector_62"
                  d="M556.14 538.525L538.88 560.9L543.381 570.439L559.675 558.455"
                  fill="#3F3D56"
                />
                <path
                  id="Vector_63"
                  d="M586.324 579.912C586.543 578.089 583.118 575.954 578.674 575.145C574.23 574.335 570.449 575.157 570.23 576.98C570.011 578.803 573.436 580.938 577.88 581.748C582.324 582.557 586.104 581.736 586.324 579.912Z"
                  fill="#3F3D56"
                />
                <path
                  id="Vector_64"
                  d="M574.811 546.942L577.486 577.62L586.29 579.87L589.439 556.534"
                  fill="#3F3D56"
                />
                <path
                  id="Vector_65"
                  d="M613.657 579.282C618.123 578.687 621.613 576.72 621.452 574.887C621.291 573.055 617.54 572.051 613.073 572.646C608.607 573.241 605.116 575.208 605.277 577.041C605.439 578.873 609.19 579.877 613.657 579.282Z"
                  fill="#3F3D56"
                />
                <path
                  id="Vector_66"
                  d="M603.56 546.551L612.429 575.408L621.41 574.855L619.68 551.296"
                  fill="#3F3D56"
                />
              </g>
            </g>
            <defs>
              <clipPath id="clip0_0_1">
                <rect width="881.631" height="587.665" fill="white" />
              </clipPath>
              <clipPath id="clip1_0_1">
                <rect
                  width="401"
                  height="164"
                  fill="white"
                  transform="translate(372 449)"
                />
              </clipPath>
            </defs>
          </svg>