<svg viewBox="0 0 840 580" fill="none" xmlns="http://www.w3.org/2000/svg">
                <g id="undraw_startup_life_re_8ow9 1" clip-path="url(#clip0_14_1766)">
                  <path id="Vector" d="M86.8811 565.375L100.823 565.374L107.455 512.986L86.8781 512.987L86.8811 565.375Z" fill="#FFB6B6"></path>
                  <path id="shoes-1" d="M86.3899 579.544L129.264 579.542V579.014C129.264 574.702 127.505 570.568 124.376 567.519C121.246 564.471 117.002 562.758 112.576 562.757H112.575L104.744 556.97L90.1318 562.758L86.3892 562.758L86.3899 579.544Z" fill="#234E70" class="dark-theme"></path>
                  <path id="Vector_3" d="M109.395 501.991L120.371 510.366L158.756 473.109L142.557 460.748L109.395 501.991Z" fill="#FFB6B6"></path>
                  <path data-dark="" id="shoes-2" d="M100.039 512.85L133.792 538.605L134.126 538.189C136.855 534.795 138.088 530.484 137.555 526.204C137.021 521.924 134.764 518.026 131.28 515.367L131.279 515.366L128.778 506.105L113.611 501.884L110.664 499.636L100.039 512.85Z" fill="#2F2E41" class="dark-theme"></path>
                  <path id="Vector_5" d="M175.035 263.29C175.035 263.29 193.54 281.984 185.315 325.38L192.22 399.685L194.002 403.124C195.064 405.174 195.434 407.498 195.061 409.765C194.688 412.032 193.59 414.126 191.923 415.75L190.455 420.184L189.085 428.863L138.027 503.638L118.495 483.609L150.021 413.508L141.454 395.482L121.579 332.724L107.872 447.557L110.614 546.367H84.3792L68.1226 436.207L50.9892 281.316L59.9013 263.29H175.035Z" fill="#6C63FF"></path>
                  <path data-dark="" id="Tshirt-1" d="M55.262 295.411L55.075 295.155C45.0894 281.536 60.1078 248.81 62.373 244.066C59.6832 243.216 57.3791 241.483 55.8532 239.164C54.3273 236.845 53.6739 234.082 54.0043 231.346L54.9808 223.26L55.9986 215.329L48.7068 208.225L48.6863 208.048L44.4901 172.279L38.3888 148.522C36.0899 139.54 36.2858 130.125 38.9564 121.242C41.6271 112.359 46.6762 104.328 53.5855 97.9743L67.6885 95.7927L84.8281 79.7051H112.468L121.945 88.5257C139.636 91.5483 142.676 90.5614 157.872 108.326L150.967 163.558L149.244 171.156L149.249 181.462L153.629 186.203C155.206 187.911 156.353 189.954 156.976 192.17C157.6 194.386 157.684 196.713 157.222 198.966L156.646 201.771C161.162 203.656 165.472 237.168 166.502 241.849L168.04 248.841C169.356 250.532 178.042 261.815 178.042 264.899C178.042 265.362 177.692 265.81 176.939 266.307C171.019 270.211 147.419 297.911 132.938 292.266C117.514 286.258 56.1984 295.271 55.5806 295.363L55.262 295.411Z" fill="#234E70" class="dark-theme"></path>
                  <path id="Vector_7" d="M51.5486 231.186C51.5486 231.186 58.6464 192.108 51.4958 177.412L23.1287 179.386L27.4458 235.135L52.2438 297.033C51.8653 298.94 52.0115 300.911 52.6676 302.745C53.3237 304.579 54.4663 306.211 55.9794 307.476C57.4925 308.741 59.3223 309.594 61.2829 309.947C63.2435 310.301 65.2652 310.142 67.1427 309.488C69.0203 308.835 70.6867 307.708 71.973 306.224C73.2593 304.74 74.1196 302.951 74.4666 301.038C74.8135 299.125 74.6348 297.157 73.9485 295.333C73.2622 293.51 72.0928 291.895 70.5589 290.654L51.5486 231.186Z" fill="#FFB6B6"></path>
                  <path data-dark="" id="Tshirt-3" d="M23.1287 156.686L24.8844 138.062C25.5451 131.052 27.622 124.239 30.9955 118.014C34.369 111.789 38.9726 106.275 44.5415 101.79C48.0016 99.0235 52.187 97.2551 56.6246 96.6844C61.0623 96.1137 65.5754 96.7636 69.6539 98.5605C75.1656 101.032 79.5082 105.451 81.8036 110.923C84.0989 116.395 84.1758 122.512 82.0186 128.037C75.4622 144.787 77.8297 162.502 65.0454 164.661L66.4344 171.099L53.8644 211.06L18.0631 207.02L23.1287 156.686Z" fill="#234E70" class="dark-theme"></path>
                  <path id="Vector_9" d="M211.949 212.664C211.949 212.664 191.17 178.53 175.912 171.932L155.728 191.449L196.32 230.97L256.555 262.142C257.545 263.828 258.975 265.229 260.7 266.203C262.426 267.177 264.385 267.688 266.378 267.686C268.372 267.684 270.33 267.168 272.053 266.19C273.776 265.212 275.203 263.808 276.188 262.12C277.174 260.431 277.684 258.519 277.665 256.576C277.647 254.634 277.101 252.731 276.084 251.061C275.066 249.39 273.613 248.012 271.872 247.065C270.131 246.118 268.164 245.637 266.17 245.671L211.949 212.664Z" fill="#FFB6B6"></path>
                  <path data-dark="" id="Tshirt-2" d="M140.532 174.24L129.395 159.005C125.204 153.272 122.217 146.787 120.608 139.925C118.998 133.062 118.797 125.958 120.016 119.02C120.788 114.724 122.777 110.725 125.759 107.473C128.741 104.221 132.598 101.847 136.892 100.618C142.726 98.9905 148.976 99.5815 154.379 102.272C159.782 104.962 163.935 109.55 165.998 115.109C172.241 131.973 195.012 159.69 186.766 169.448L192.128 173.446L200.232 195.936L170.386 215.617L140.532 174.24Z" fill="#234E70" class="dark-theme"></path>
                  <path id="Vector_11" d="M96.7831 71.9334C113.736 71.9334 127.479 58.5454 127.479 42.0305C127.479 25.5155 113.736 12.1276 96.7831 12.1276C79.8302 12.1276 66.0872 25.5155 66.0872 42.0305C66.0872 58.5454 79.8302 71.9334 96.7831 71.9334Z" fill="#FFB6B6"></path>
                  <path id="Vector_12" d="M74.5054 63.1075C74.2378 62.8786 73.9852 62.6341 73.7236 62.3989C73.7143 62.423 73.7128 62.4477 73.7028 62.4718L74.5054 63.1075Z" fill="#2F2E41"></path>
                  <path id="Vector_13" d="M121.938 10.4529C120.413 8.06118 118.301 6.07705 115.791 4.67958C114.076 3.86926 112.274 3.24722 110.418 2.82493L105.56 1.53374C103.071 0.783447 100.511 0.281142 97.9174 0.0345727C94.3164 -0.138479 90.7358 0.655797 87.5668 2.33063C84.3977 4.00546 81.7621 6.49645 79.9477 9.53151C78.4801 12.0675 77.3028 15.2277 74.4701 16.1555C72.1861 16.9036 69.694 15.8483 67.2935 16.0531C65.8869 16.2516 64.5523 16.7851 63.4079 17.6063C62.2635 18.4275 61.3447 19.511 60.7329 20.7607C59.5366 23.2758 58.9478 26.0244 59.0118 28.7956C58.9174 35.0873 60.1779 41.3283 62.7119 47.1162C65.2459 52.9041 68.9972 58.1103 73.7237 62.3989C74.5159 60.3645 73.2111 58.1681 72.1795 56.2221C71.1358 54.2529 70.4908 51.5076 72.2389 50.0894C74.184 48.5113 77.3005 50.0416 79.601 49.0125C80.3369 48.6006 80.9568 48.0177 81.4051 47.3156C81.8535 46.6136 82.1163 45.8143 82.1703 44.9891C82.393 43.354 82.1605 41.692 82.2659 40.0458C82.3703 38.4139 82.8055 36.8184 83.5464 35.3514C84.2873 33.8843 85.3192 32.5748 86.5826 31.4984C87.8459 30.422 89.3156 29.6001 90.9068 29.0801C92.498 28.5601 94.1792 28.3524 95.8533 28.4689C101.09 28.8333 106.171 32.3189 111.21 30.8849C113.575 30.2118 115.593 28.498 118.039 28.2098C120.748 27.8905 123.297 29.38 125.598 30.8102C126.433 27.3523 126.54 23.7652 125.911 20.266C125.282 16.7667 123.93 13.4283 121.938 10.4529Z" fill="#80634C"></path>
                  <path id="Vector_14" d="M228.354 562.743L220.543 550.515L218.983 557.503C218.709 558.727 218.436 559.97 218.182 561.204C215.964 559.358 213.603 557.651 211.293 556.013C204.202 550.999 197.113 545.979 190.028 540.952L192.247 553.486C193.615 561.204 195.043 569.08 198.427 576.136C198.802 576.936 199.207 577.725 199.643 578.495H232.609C232.874 577.78 233.058 577.038 233.156 576.284C233.165 576.235 233.168 576.186 233.166 576.136C233.683 571.349 230.968 566.839 228.354 562.743Z" fill="#A0616A"></path>
                  <path id="Vector_15" d="M799.831 549.537L785.663 527.357L782.833 540.031C782.337 542.251 781.84 544.507 781.381 546.745C777.357 543.397 773.075 540.3 768.885 537.328C756.022 528.234 743.164 519.128 730.312 510.01L734.337 532.745C736.818 546.745 739.409 561.03 745.547 573.83C746.227 575.28 746.962 576.712 747.752 578.109H807.55C808.031 576.811 808.364 575.467 808.542 574.098C808.557 574.01 808.563 573.92 808.56 573.83C809.498 565.148 804.572 556.967 799.831 549.537Z" fill="#A0616A"></path>
                  <path id="Vector_16" d="M838.794 579.697L1.20625 580C0.886929 579.999 0.581007 579.875 0.355538 579.655C0.130069 579.434 0.00344849 579.136 0.00344849 578.825C0.00344849 578.514 0.130069 578.215 0.355538 577.995C0.581007 577.775 0.886929 577.651 1.20625 577.65L838.794 577.346C839.113 577.347 839.419 577.472 839.644 577.692C839.87 577.912 839.997 578.211 839.997 578.522C839.997 578.833 839.87 579.131 839.644 579.351C839.419 579.572 839.113 579.696 838.794 579.697Z" fill="#80634C"></path>
                  <path id="Vector_17" d="M262.798 235.185V518.459C262.801 522.069 264.275 525.531 266.895 528.083C269.515 530.636 273.068 532.071 276.774 532.074H707.689C711.395 532.071 714.948 530.636 717.568 528.083C720.189 525.531 721.662 522.069 721.665 518.46V235.185C721.656 231.578 720.18 228.122 717.561 225.573C714.941 223.024 711.392 221.59 707.689 221.585H276.774C273.071 221.59 269.522 223.024 266.902 225.573C264.283 228.122 262.807 231.578 262.798 235.185Z" fill="#3F3D56"></path>
                  <path id="Vector_18" d="M272.907 238.709V514.965C272.911 516.894 273.699 518.743 275.099 520.107C276.499 521.47 278.397 522.238 280.376 522.241H704.102C706.082 522.238 707.98 521.47 709.38 520.107C710.78 518.743 711.568 516.894 711.571 514.965V238.709C711.571 236.778 710.785 234.926 709.385 233.559C707.984 232.192 706.085 231.422 704.102 231.418H280.376C278.394 231.422 276.494 232.192 275.094 233.559C273.694 234.926 272.907 236.778 272.907 238.709Z" fill="white"></path>
                  <path id="Vector_19" d="M253.786 573.706C254.575 574.67 255.579 575.447 256.721 575.98C257.863 576.512 259.114 576.785 260.38 576.779H721.789C723.051 576.777 724.297 576.502 725.436 575.972C726.574 575.443 727.578 574.673 728.373 573.718C729.168 572.763 729.734 571.648 730.031 570.453C730.328 569.259 730.347 568.014 730.089 566.811L722.926 533.669C722.629 532.317 721.99 531.059 721.067 530.01C720.143 528.96 718.965 528.153 717.64 527.66C716.68 527.293 715.658 527.105 714.627 527.106H267.514C266.483 527.105 265.461 527.293 264.501 527.66C263.176 528.153 261.997 528.96 261.074 530.01C260.151 531.059 259.512 532.317 259.215 533.669L252.052 566.811C251.797 568.014 251.821 569.256 252.121 570.449C252.421 571.642 252.99 572.754 253.786 573.706Z" fill="#2F2E41"></path>
                  <path id="Vector_20" d="M697.633 541.382H710.855C711.128 541.382 711.35 541.166 711.35 540.9V533.557C711.35 533.291 711.128 533.075 710.855 533.075H697.633C697.36 533.075 697.139 533.291 697.139 533.557V540.9C697.139 541.166 697.36 541.382 697.633 541.382Z" fill="#3F3D56"></path>
                  <path id="Vector_21" d="M669.211 541.382H682.433C682.706 541.382 682.927 541.166 682.927 540.9V533.557C682.927 533.291 682.706 533.075 682.433 533.075H669.211C668.937 533.075 668.716 533.291 668.716 533.557V540.9C668.716 541.166 668.937 541.382 669.211 541.382Z" fill="#3F3D56"></path>
                  <path id="Vector_22" d="M640.788 541.382H654.01C654.283 541.382 654.505 541.166 654.505 540.9V533.557C654.505 533.291 654.283 533.075 654.01 533.075H640.788C640.515 533.075 640.294 533.291 640.294 533.557V540.9C640.294 541.166 640.515 541.382 640.788 541.382Z" fill="#3F3D56"></path>
                  <path id="Vector_23" d="M612.366 541.382H625.588C625.861 541.382 626.083 541.166 626.083 540.9V533.557C626.083 533.291 625.861 533.075 625.588 533.075H612.366C612.093 533.075 611.871 533.291 611.871 533.557V540.9C611.871 541.166 612.093 541.382 612.366 541.382Z" fill="#3F3D56"></path>
                  <path id="Vector_24" d="M583.943 541.382H597.166C597.439 541.382 597.66 541.166 597.66 540.9V533.557C597.66 533.291 597.439 533.075 597.166 533.075H583.943C583.67 533.075 583.449 533.291 583.449 533.557V540.9C583.449 541.166 583.67 541.382 583.943 541.382Z" fill="#3F3D56"></path>
                  <path id="Vector_25" d="M555.521 541.382H568.743C569.016 541.382 569.238 541.166 569.238 540.9V533.557C569.238 533.291 569.016 533.075 568.743 533.075H555.521C555.248 533.075 555.027 533.291 555.027 533.557V540.9C555.027 541.166 555.248 541.382 555.521 541.382Z" fill="#3F3D56"></path>
                  <path id="Vector_26" d="M527.099 541.382H540.321C540.594 541.382 540.815 541.166 540.815 540.9V533.557C540.815 533.291 540.594 533.075 540.321 533.075H527.099C526.826 533.075 526.604 533.291 526.604 533.557V540.9C526.604 541.166 526.826 541.382 527.099 541.382Z" fill="#3F3D56"></path>
                  <path id="Vector_27" d="M498.676 541.382H511.898C512.171 541.382 512.393 541.166 512.393 540.9V533.557C512.393 533.291 512.171 533.075 511.898 533.075H498.676C498.403 533.075 498.182 533.291 498.182 533.557V540.9C498.182 541.166 498.403 541.382 498.676 541.382Z" fill="#3F3D56"></path>
                  <path id="Vector_28" d="M470.254 541.382H483.476C483.749 541.382 483.97 541.166 483.97 540.9V533.557C483.97 533.291 483.749 533.075 483.476 533.075H470.254C469.981 533.075 469.759 533.291 469.759 533.557V540.9C469.759 541.166 469.981 541.382 470.254 541.382Z" fill="#3F3D56"></path>
                  <path id="Vector_29" d="M441.831 541.382H455.054C455.327 541.382 455.548 541.166 455.548 540.9V533.557C455.548 533.291 455.327 533.075 455.054 533.075H441.831C441.558 533.075 441.337 533.291 441.337 533.557V540.9C441.337 541.166 441.558 541.382 441.831 541.382Z" fill="#3F3D56"></path>
                  <path id="Vector_30" d="M413.409 541.382H426.631C426.904 541.382 427.126 541.166 427.126 540.9V533.557C427.126 533.291 426.904 533.075 426.631 533.075H413.409C413.136 533.075 412.914 533.291 412.914 533.557V540.9C412.914 541.166 413.136 541.382 413.409 541.382Z" fill="#3F3D56"></path>
                  <path id="Vector_31" d="M384.987 541.382H398.209C398.482 541.382 398.703 541.166 398.703 540.9V533.557C398.703 533.291 398.482 533.075 398.209 533.075H384.987C384.714 533.075 384.492 533.291 384.492 533.557V540.9C384.492 541.166 384.714 541.382 384.987 541.382Z" fill="#3F3D56"></path>
                  <path id="Vector_32" d="M356.564 541.382H369.786C370.06 541.382 370.281 541.166 370.281 540.9V533.557C370.281 533.291 370.06 533.075 369.786 533.075H356.564C356.291 533.075 356.07 533.291 356.07 533.557V540.9C356.07 541.166 356.291 541.382 356.564 541.382Z" fill="#3F3D56"></path>
                  <path id="Vector_33" d="M328.142 541.382H341.364C341.637 541.382 341.859 541.166 341.859 540.9V533.557C341.859 533.291 341.637 533.075 341.364 533.075H328.142C327.869 533.075 327.647 533.291 327.647 533.557V540.9C327.647 541.166 327.869 541.382 328.142 541.382Z" fill="#3F3D56"></path>
                  <path id="Vector_34" d="M299.72 541.382H312.942C313.215 541.382 313.436 541.166 313.436 540.9V533.557C313.436 533.291 313.215 533.075 312.942 533.075H299.72C299.446 533.075 299.225 533.291 299.225 533.557V540.9C299.225 541.166 299.446 541.382 299.72 541.382Z" fill="#3F3D56"></path>
                  <path id="Vector_35" d="M271.297 541.382H284.519C284.792 541.382 285.014 541.166 285.014 540.9V533.557C285.014 533.291 284.792 533.075 284.519 533.075H271.297C271.024 533.075 270.803 533.291 270.803 533.557V540.9C270.803 541.166 271.024 541.382 271.297 541.382Z" fill="#3F3D56"></path>
                  <path id="Vector_36" d="M697.969 555.226H711.191C711.464 555.226 711.686 555.01 711.686 554.744V547.401C711.686 547.135 711.464 546.92 711.191 546.92H697.969C697.696 546.92 697.474 547.135 697.474 547.401V554.744C697.474 555.01 697.696 555.226 697.969 555.226Z" fill="#3F3D56"></path>
                  <path id="Vector_37" d="M669.547 555.226H682.769C683.042 555.226 683.263 555.01 683.263 554.744V547.401C683.263 547.135 683.042 546.92 682.769 546.92H669.547C669.273 546.92 669.052 547.135 669.052 547.401V554.744C669.052 555.01 669.273 555.226 669.547 555.226Z" fill="#3F3D56"></path>
                  <path id="Vector_38" d="M641.124 555.226H654.346C654.619 555.226 654.841 555.01 654.841 554.744V547.401C654.841 547.135 654.619 546.92 654.346 546.92H641.124C640.851 546.92 640.63 547.135 640.63 547.401V554.744C640.63 555.01 640.851 555.226 641.124 555.226Z" fill="#3F3D56"></path>
                  <path id="Vector_39" d="M612.702 555.226H625.924C626.197 555.226 626.418 555.01 626.418 554.744V547.401C626.418 547.135 626.197 546.92 625.924 546.92H612.702C612.429 546.92 612.207 547.135 612.207 547.401V554.744C612.207 555.01 612.429 555.226 612.702 555.226Z" fill="#3F3D56"></path>
                  <path id="Vector_40" d="M584.279 555.226H597.501C597.775 555.226 597.996 555.01 597.996 554.744V547.401C597.996 547.135 597.775 546.92 597.501 546.92H584.279C584.006 546.92 583.785 547.135 583.785 547.401V554.744C583.785 555.01 584.006 555.226 584.279 555.226Z" fill="#3F3D56"></path>
                  <path id="Vector_41" d="M555.857 555.226H569.079C569.352 555.226 569.574 555.01 569.574 554.744V547.401C569.574 547.135 569.352 546.92 569.079 546.92H555.857C555.584 546.92 555.362 547.135 555.362 547.401V554.744C555.362 555.01 555.584 555.226 555.857 555.226Z" fill="#3F3D56"></path>
                  <path id="Vector_42" d="M527.435 555.226H540.657C540.93 555.226 541.151 555.01 541.151 554.744V547.401C541.151 547.135 540.93 546.92 540.657 546.92H527.435C527.161 546.92 526.94 547.135 526.94 547.401V554.744C526.94 555.01 527.161 555.226 527.435 555.226Z" fill="#3F3D56"></path>
                  <path id="Vector_43" d="M499.012 555.226H512.234C512.507 555.226 512.729 555.01 512.729 554.744V547.401C512.729 547.135 512.507 546.92 512.234 546.92H499.012C498.739 546.92 498.518 547.135 498.518 547.401V554.744C498.518 555.01 498.739 555.226 499.012 555.226Z" fill="#3F3D56"></path>
                  <path id="Vector_44" d="M470.59 555.226H483.812C484.085 555.226 484.306 555.01 484.306 554.744V547.401C484.306 547.135 484.085 546.92 483.812 546.92H470.59C470.317 546.92 470.095 547.135 470.095 547.401V554.744C470.095 555.01 470.317 555.226 470.59 555.226Z" fill="#3F3D56"></path>
                  <path id="Vector_45" d="M442.167 555.226H455.389C455.663 555.226 455.884 555.01 455.884 554.744V547.401C455.884 547.135 455.663 546.92 455.389 546.92H442.167C441.894 546.92 441.673 547.135 441.673 547.401V554.744C441.673 555.01 441.894 555.226 442.167 555.226Z" fill="#3F3D56"></path>
                  <path id="Vector_46" d="M413.745 555.226H426.967C427.24 555.226 427.462 555.01 427.462 554.744V547.401C427.462 547.135 427.24 546.92 426.967 546.92H413.745C413.472 546.92 413.25 547.135 413.25 547.401V554.744C413.25 555.01 413.472 555.226 413.745 555.226Z" fill="#3F3D56"></path>
                  <path id="Vector_47" d="M385.323 555.226H398.545C398.818 555.226 399.039 555.01 399.039 554.744V547.401C399.039 547.135 398.818 546.92 398.545 546.92H385.323C385.049 546.92 384.828 547.135 384.828 547.401V554.744C384.828 555.01 385.049 555.226 385.323 555.226Z" fill="#3F3D56"></path>
                  <path id="Vector_48" d="M356.9 555.226H370.122C370.395 555.226 370.617 555.01 370.617 554.744V547.401C370.617 547.135 370.395 546.92 370.122 546.92H356.9C356.627 546.92 356.406 547.135 356.406 547.401V554.744C356.406 555.01 356.627 555.226 356.9 555.226Z" fill="#3F3D56"></path>
                  <path id="Vector_49" d="M328.478 555.226H341.7C341.973 555.226 342.194 555.01 342.194 554.744V547.401C342.194 547.135 341.973 546.92 341.7 546.92H328.478C328.205 546.92 327.983 547.135 327.983 547.401V554.744C327.983 555.01 328.205 555.226 328.478 555.226Z" fill="#3F3D56"></path>
                  <path id="Vector_50" d="M300.055 555.226H313.277C313.551 555.226 313.772 555.01 313.772 554.744V547.401C313.772 547.135 313.551 546.92 313.277 546.92H300.055C299.782 546.92 299.561 547.135 299.561 547.401V554.744C299.561 555.01 299.782 555.226 300.055 555.226Z" fill="#3F3D56"></path>
                  <path id="Vector_51" d="M271.633 555.226H284.855C285.128 555.226 285.35 555.01 285.35 554.744V547.401C285.35 547.135 285.128 546.92 284.855 546.92H271.633C271.36 546.92 271.138 547.135 271.138 547.401V554.744C271.138 555.01 271.36 555.226 271.633 555.226Z" fill="#3F3D56"></path>
                  <path id="Vector_52" d="M430.657 571.839H543.357C543.63 571.839 543.852 571.623 543.852 571.357V564.014C543.852 563.748 543.63 563.532 543.357 563.532H430.657C430.383 563.532 430.162 563.748 430.162 564.014V571.357C430.162 571.623 430.383 571.839 430.657 571.839Z" fill="#3F3D56"></path>
                  <path id="Vector_53" d="M688.44 281.43H296.039C295.77 281.424 295.514 281.316 295.326 281.128C295.138 280.941 295.033 280.69 295.033 280.428C295.033 280.165 295.138 279.914 295.326 279.727C295.514 279.539 295.77 279.431 296.039 279.425H688.44C688.709 279.431 688.964 279.539 689.153 279.727C689.341 279.914 689.446 280.165 689.446 280.428C689.446 280.69 689.341 280.941 689.153 281.128C688.964 281.316 688.709 281.424 688.44 281.43Z" fill="#CACACA"></path>
                  <path id="Vector_54" d="M318.687 267.4C324.8 267.4 329.756 262.465 329.756 256.377C329.756 250.29 324.8 245.355 318.687 245.355C312.574 245.355 307.619 250.29 307.619 256.377C307.619 262.465 312.574 267.4 318.687 267.4Z" fill="#3F3D56"></path>
                  <path id="Vector_55" d="M356.924 267.4C363.037 267.4 367.993 262.465 367.993 256.377C367.993 250.29 363.037 245.355 356.924 245.355C350.811 245.355 345.855 250.29 345.855 256.377C345.855 262.465 350.811 267.4 356.924 267.4Z" fill="#3F3D56"></path>
                  <path id="Vector_56" d="M395.161 267.4C401.274 267.4 406.229 262.465 406.229 256.377C406.229 250.29 401.274 245.355 395.161 245.355C389.048 245.355 384.092 250.29 384.092 256.377C384.092 262.465 389.048 267.4 395.161 267.4Z" fill="#3F3D56"></path>
                  <path id="Vector_57" d="M665.526 248.087H638.365C637.826 248.097 637.314 248.313 636.937 248.687C636.56 249.062 636.349 249.566 636.349 250.09C636.349 250.615 636.56 251.118 636.937 251.493C637.314 251.868 637.826 252.083 638.365 252.094H665.526C666.065 252.083 666.577 251.868 666.954 251.493C667.331 251.118 667.542 250.615 667.542 250.09C667.542 249.566 667.331 249.062 666.954 248.687C666.577 248.313 666.065 248.097 665.526 248.087Z" fill="#3F3D56"></path>
                  <path id="Vector_58" d="M665.526 255.607H638.365C637.826 255.618 637.314 255.833 636.937 256.208C636.56 256.582 636.349 257.086 636.349 257.611C636.349 258.135 636.56 258.639 636.937 259.013C637.314 259.388 637.826 259.604 638.365 259.614H665.526C666.065 259.604 666.577 259.388 666.954 259.013C667.331 258.639 667.542 258.135 667.542 257.611C667.542 257.086 667.331 256.582 666.954 256.208C666.577 255.833 666.065 255.618 665.526 255.607Z" fill="#3F3D56"></path>
                  <path id="Vector_59" d="M665.526 263.118H638.365C637.826 263.128 637.314 263.344 636.937 263.718C636.56 264.093 636.349 264.597 636.349 265.121C636.349 265.646 636.56 266.149 636.937 266.524C637.314 266.899 637.826 267.114 638.365 267.125H665.526C666.065 267.114 666.577 266.899 666.954 266.524C667.331 266.149 667.542 265.646 667.542 265.121C667.542 264.597 667.331 264.093 666.954 263.718C666.577 263.344 666.065 263.128 665.526 263.118Z" fill="#3F3D56"></path>
                  <g id="ball-3">
                    <path id="Vector_60" d="M27.9251 509.517C38.3772 509.517 46.8503 501.342 46.8503 491.258C46.8503 481.175 38.3772 473 27.9251 473C17.4731 473 9 481.175 9 491.258C9 501.342 17.4731 509.517 27.9251 509.517Z" fill="#FF6584"></path>
                  </g>
                  <g id="ball-2">
                    <path id="Vector_61" d="M764.39 437.213C774.742 437.213 783.133 429.039 783.133 418.955C783.133 408.871 774.742 400.697 764.39 400.697C754.039 400.697 745.648 408.871 745.648 418.955C745.648 429.039 754.039 437.213 764.39 437.213Z" fill="#80634C"></path>
                  </g>
                  <g id="ball-1">
                    <path id="Vector_62" d="M806.434 287.199C824.899 287.199 839.867 272.617 839.867 254.63C839.867 236.643 824.899 222.061 806.434 222.061C787.97 222.061 773.002 236.643 773.002 254.63C773.002 272.617 787.97 287.199 806.434 287.199Z" fill="#6C63FF"></path>
                  </g>
                  <g id="undraw_mobile_images_rc-0-q 1" clip-path="url(#clip1_14_1766)">
                    <path id="Vector_63" d="M682.835 286.901H304.946V499.142H682.835V286.901Z" fill="#6C63FF"></path>
                    <path id="Vector_64" d="M475.74 333.947V358.839C475.74 359.069 475.657 359.29 475.51 359.452C475.363 359.615 475.164 359.707 474.957 359.707H474.399V489.383C474.398 492.971 473.111 496.413 470.819 498.95C468.528 501.488 465.42 502.913 462.179 502.913H389C387.396 502.913 385.807 502.563 384.325 501.883C382.842 501.203 381.496 500.206 380.361 498.95C379.227 497.693 378.327 496.202 377.713 494.56C377.099 492.919 376.784 491.16 376.784 489.383V364.255H376.38C376.234 364.256 376.093 364.192 375.989 364.077C375.885 363.963 375.826 363.807 375.826 363.645V349.478C375.826 349.397 375.84 349.318 375.868 349.243C375.896 349.169 375.937 349.101 375.988 349.044C376.039 348.987 376.101 348.942 376.168 348.911C376.235 348.88 376.307 348.864 376.38 348.864H376.784V343.528H376.377C376.223 343.527 376.076 343.459 375.967 343.338C375.859 343.217 375.798 343.054 375.798 342.883V328.91C375.799 328.74 375.86 328.577 375.968 328.457C376.076 328.337 376.223 328.27 376.377 328.269H376.784V320.985H376.37C376.302 320.985 376.236 320.97 376.173 320.942C376.111 320.913 376.054 320.871 376.007 320.818C375.959 320.766 375.921 320.703 375.895 320.634C375.87 320.565 375.856 320.491 375.856 320.416V312.791C375.856 312.639 375.91 312.494 376.006 312.387C376.102 312.28 376.233 312.219 376.37 312.218H376.784V296.778C376.784 293.19 378.071 289.75 380.362 287.213C382.653 284.676 385.76 283.251 389 283.251H462.179C465.419 283.251 468.527 284.676 470.818 287.213C473.11 289.749 474.398 293.19 474.399 296.778V333.079H474.957C475.164 333.079 475.363 333.171 475.51 333.334C475.657 333.496 475.74 333.717 475.74 333.947Z" fill="#3F3D56"></path>
                    <path id="Vector_65" opacity="0.1" d="M629.677 286.901L467.883 409.887L456.841 392.078L595.209 286.901H629.677Z" fill="black"></path>
                    <path id="Vector_66" opacity="0.1" d="M682.835 286.901V304.71L455.218 477.729L444.176 459.919L671.796 286.901H682.835Z" fill="black"></path>
                    <path id="Vector_67" opacity="0.1" d="M682.835 339.325V365.525L507.055 499.142H472.583L682.835 339.325Z" fill="black"></path>
                    <path id="Vector_68" d="M671.197 502.565H315.273V503.323H671.197V502.565Z" fill="#3F3D56"></path>
                    <path id="Vector_69" d="M592.353 441.025L577.839 429.617L567.535 445.687L582.049 457.096L592.353 441.025Z" fill="#F0F0F0"></path>
                    <path id="Vector_70" d="M581.918 461.239C581.106 461.239 580.312 460.972 579.636 460.473C578.961 459.973 578.434 459.263 578.123 458.431C577.813 457.6 577.731 456.686 577.89 455.804C578.048 454.922 578.439 454.111 579.014 453.475C579.588 452.839 580.32 452.406 581.117 452.23C581.914 452.055 582.74 452.145 583.49 452.489C584.241 452.833 584.882 453.416 585.333 454.164C585.785 454.912 586.026 455.791 586.026 456.691C586.024 457.897 585.591 459.053 584.821 459.905C584.051 460.758 583.007 461.238 581.918 461.239ZM581.918 452.901C581.241 452.901 580.579 453.123 580.017 453.54C579.454 453.956 579.015 454.548 578.756 455.241C578.497 455.933 578.429 456.695 578.561 457.43C578.693 458.166 579.019 458.841 579.498 459.371C579.977 459.901 580.586 460.262 581.25 460.408C581.914 460.554 582.603 460.479 583.228 460.193C583.854 459.906 584.388 459.42 584.764 458.797C585.14 458.173 585.341 457.441 585.341 456.691C585.34 455.686 584.979 454.723 584.337 454.012C583.696 453.302 582.826 452.902 581.918 452.901Z" fill="#3F3D56"></path>
                    <path id="Vector_71" d="M500.111 321.387C499.298 321.387 498.504 321.12 497.829 320.621C497.153 320.121 496.627 319.411 496.316 318.58C496.005 317.749 495.924 316.834 496.082 315.952C496.241 315.07 496.632 314.259 497.206 313.623C497.781 312.987 498.512 312.554 499.309 312.378C500.106 312.203 500.932 312.293 501.682 312.637C502.433 312.982 503.075 313.564 503.526 314.312C503.977 315.06 504.218 315.94 504.218 316.839C504.217 318.045 503.784 319.201 503.014 320.054C502.244 320.906 501.2 321.386 500.111 321.387ZM500.111 313.049C499.434 313.049 498.772 313.271 498.209 313.688C497.646 314.104 497.207 314.696 496.948 315.389C496.689 316.081 496.621 316.843 496.753 317.579C496.886 318.314 497.212 318.989 497.69 319.519C498.169 320.049 498.779 320.41 499.443 320.556C500.107 320.703 500.795 320.627 501.42 320.341C502.046 320.054 502.581 319.568 502.957 318.945C503.333 318.321 503.534 317.589 503.534 316.839C503.532 315.834 503.172 314.871 502.53 314.16C501.888 313.45 501.018 313.05 500.111 313.049Z" fill="#F0F0F0"></path>
                    <path id="Vector_72" d="M352.574 475.062H351.89V503.264H352.574V475.062Z" fill="#3F3D56"></path>
                    <path id="Vector_73" d="M352.232 479.05C354.222 479.05 355.834 477.265 355.834 475.062C355.834 472.859 354.222 471.074 352.232 471.074C350.243 471.074 348.631 472.859 348.631 475.062C348.631 477.265 350.243 479.05 352.232 479.05Z" fill="#3F3D56"></path>
                    <path id="Vector_74" d="M352.232 492.444C352.232 492.444 351.718 480.19 341.169 481.614Z" fill="#3F3D56"></path>
                    <path id="Vector_75" d="M429.115 290.189H417.224C416.744 290.189 416.354 290.621 416.354 291.153V292.291C416.354 292.823 416.744 293.254 417.224 293.254H429.115C429.596 293.254 429.985 292.823 429.985 292.291V291.153C429.985 290.621 429.596 290.189 429.115 290.189Z" fill="#E6E8EC"></path>
                    <path id="Vector_76" d="M433.616 293.46C434.483 293.46 435.186 292.682 435.186 291.722C435.186 290.762 434.483 289.984 433.616 289.984C432.749 289.984 432.046 290.762 432.046 291.722C432.046 292.682 432.749 293.46 433.616 293.46Z" fill="#E6E8EC"></path>
                    <path id="Vector_77" d="M468.547 299.453V490.505C468.546 492.781 467.729 494.963 466.275 496.572C464.821 498.181 462.85 499.085 460.794 499.085H390.744C389.726 499.087 388.717 498.867 387.776 498.436C386.835 498.006 385.98 497.374 385.259 496.577C384.539 495.78 383.968 494.833 383.579 493.791C383.19 492.749 382.99 491.632 382.991 490.505V299.453C382.991 298.326 383.192 297.21 383.582 296.168C383.971 295.127 384.542 294.18 385.262 293.383C385.982 292.586 386.837 291.954 387.777 291.522C388.718 291.091 389.726 290.869 390.744 290.869H401.229V292.359C401.229 294.233 401.901 296.031 403.098 297.357C404.296 298.682 405.919 299.427 407.612 299.427H443.238C444.931 299.427 446.555 298.682 447.752 297.357C448.949 296.031 449.622 294.233 449.622 292.359V290.869H460.794C461.812 290.869 462.821 291.09 463.762 291.522C464.702 291.953 465.557 292.585 466.277 293.383C466.997 294.18 467.568 295.126 467.958 296.168C468.347 297.21 468.547 298.326 468.547 299.453Z" fill="#6C63FF"></path>
                    <path id="Vector_78" d="M465.823 347.162H386.411V389.99H465.823V347.162Z" fill="#3F3D56"></path>
                    <path id="Vector_79" d="M465.823 418.415H386.411V461.242H465.823V418.415Z" fill="#3F3D56"></path>
                    <path id="Vector_80" d="M457.608 321.769C461.388 321.769 464.453 318.375 464.453 314.189C464.453 310.003 461.388 306.609 457.608 306.609C453.827 306.609 450.762 310.003 450.762 314.189C450.762 318.375 453.827 321.769 457.608 321.769Z" fill="white"></path>
                    <path id="Vector_81" d="M460.688 313.945H457.828V310.778H457.387V313.945H454.527V314.433H457.387V317.6H457.828V314.433H460.688V313.945Z" fill="#3F3D56"></path>
                    <path id="Vector_82" d="M418.384 376.569C420.463 385.078 427.583 390.348 427.583 390.348C427.583 390.348 431.333 381.822 429.254 373.313C427.175 364.805 420.055 359.535 420.055 359.535C420.055 359.535 416.305 368.061 418.384 376.569Z" fill="white"></path>
                    <path id="Vector_83" d="M421.439 374.741C427.143 380.889 427.839 390.341 427.839 390.341C427.839 390.341 419.288 389.824 413.584 383.675C407.879 377.527 407.183 368.075 407.183 368.075C407.183 368.075 415.734 368.592 421.439 374.741Z" fill="#6C63FF"></path>
                    <path id="Vector_84" d="M418.384 447.822C420.463 456.331 427.583 461.6 427.583 461.6C427.583 461.6 431.333 453.075 429.254 444.566C427.175 436.057 420.055 430.788 420.055 430.788C420.055 430.788 416.305 439.313 418.384 447.822Z" fill="white"></path>
                    <path id="Vector_85" d="M421.439 445.993C427.143 452.142 427.839 461.593 427.839 461.593C427.839 461.593 419.288 461.076 413.584 454.928C407.879 448.779 407.183 439.328 407.183 439.328C407.183 439.328 415.734 439.845 421.439 445.993Z" fill="#6C63FF"></path>
                    <path id="Vector_86" d="M437.295 447.822C435.216 456.331 428.096 461.6 428.096 461.6C428.096 461.6 424.346 453.075 426.425 444.566C428.504 436.057 435.624 430.788 435.624 430.788C435.624 430.788 439.374 439.313 437.295 447.822Z" fill="white"></path>
                    <path id="Vector_87" d="M434.24 445.993C428.536 452.142 427.84 461.593 427.84 461.593C427.84 461.593 436.391 461.076 442.095 454.928C447.8 448.779 448.496 439.328 448.496 439.328C448.496 439.328 439.945 439.845 434.24 445.993Z" fill="#6C63FF"></path>
                    <path id="Vector_88" d="M639.022 329.077H632.265V321.595H639.022V329.077ZM632.784 328.502H638.502V322.171H632.784V328.502Z" fill="#3F3D56"></path>
                    <path id="Vector_89" d="M643.007 498.521L638.398 493.05L643.34 487.947L647.949 493.418L643.007 498.521ZM639.133 493.078L643.033 497.708L647.214 493.39L643.314 488.76L639.133 493.078Z" fill="#F0F0F0"></path>
                    <path id="Vector_90" d="M351.946 325.467C353.851 325.467 355.396 323.756 355.396 321.647C355.396 319.537 353.851 317.827 351.946 317.827C350.04 317.827 348.496 319.537 348.496 321.647C348.496 323.756 350.04 325.467 351.946 325.467Z" fill="#F0F0F0"></path>
                    <path id="Vector_91" d="M351.946 332.682C349.975 332.682 348.048 332.035 346.409 330.822C344.77 329.609 343.492 327.886 342.738 325.87C341.984 323.853 341.786 321.634 342.171 319.494C342.556 317.353 343.505 315.387 344.899 313.844C346.292 312.301 348.068 311.25 350.001 310.824C351.935 310.398 353.938 310.616 355.76 311.452C357.581 312.287 359.137 313.701 360.232 315.516C361.327 317.331 361.912 319.464 361.912 321.647C361.909 324.572 360.858 327.377 358.99 329.446C357.121 331.515 354.588 332.678 351.946 332.682ZM351.946 311.461C350.126 311.461 348.348 312.058 346.835 313.177C345.322 314.297 344.143 315.887 343.446 317.749C342.75 319.61 342.568 321.658 342.923 323.634C343.278 325.61 344.154 327.425 345.441 328.849C346.727 330.274 348.366 331.244 350.151 331.637C351.935 332.03 353.785 331.829 355.466 331.058C357.147 330.287 358.584 328.981 359.595 327.306C360.606 325.631 361.145 323.661 361.145 321.647C361.142 318.946 360.172 316.357 358.448 314.447C356.723 312.538 354.385 311.464 351.946 311.461Z" fill="#2F2E41"></path>
                    <path id="Vector_92" d="M638.337 364.596H526.066V374.829H638.337V364.596Z" fill="#F0F0F0"></path>
                    <path id="Vector_93" d="M624.132 388.474H540.271V392.437H624.132V388.474Z" fill="#F0F0F0"></path>
                    <path id="Vector_94" d="M624.132 394.859H540.271V398.822H624.132V394.859Z" fill="#F0F0F0"></path>
                    <path id="Vector_95" d="M624.132 401.244H540.271V405.207H624.132V401.244Z" fill="#F0F0F0"></path>
                    <path id="Vector_96" d="M624.132 407.629H540.271V411.593H624.132V407.629Z" fill="#F0F0F0"></path>
                  </g>
                </g>
                <defs>
                  <clipPath id="clip0_14_1766">
                    <rect width="840" height="580" fill="white"></rect>
                  </clipPath>
                  <clipPath id="clip1_14_1766">
                    <rect width="377.889" height="220.087" fill="white" transform="translate(304.946 283.251)"></rect>
                  </clipPath>
                </defs>
              </svg>